<?xml version="1.0" encoding="UTF-8"?><svg xmlns="http://www.w3.org/2000/svg" xmlns:xlink="http://www.w3.org/1999/xlink" width="180" zoomAndPan="magnify" viewBox="0 0 180 179.999997" height="179.999997" preserveAspectRatio="xMidYMid meet" version="1.0"><defs><clipPath id="clip-0"><path d="M 59 12 L 165 12 L 165 174.75 L 59 174.75 Z M 59 12 " clip-rule="nonzero"/></clipPath><clipPath id="clip-1"><path d="M 126 30 L 179.996094 30 L 179.996094 173 L 126 173 Z M 126 30 " clip-rule="nonzero"/></clipPath><clipPath id="clip-2"><path d="M 47.585938 1 L 128 1 L 128 174.75 L 47.585938 174.75 Z M 47.585938 1 " clip-rule="nonzero"/></clipPath></defs><g clip-path="url(#clip-0)"><path fill="rgb(100%, 100%, 100%)" d="M 125.136719 32.898438 C 125.136719 32.898438 124.921875 35.476562 122.433594 36.148438 C 122.433594 36.148438 119.539062 32.683594 116.667969 36.15625 L 114.796875 33.4375 C 114.796875 33.4375 112.664062 34.929688 110.363281 34.902344 C 110.363281 34.902344 107.664062 36.800781 105.964844 35.523438 L 103.886719 36.15625 L 108.355469 59.105469 C 108.355469 59.105469 112.320312 64.066406 114.925781 64.710938 C 114.925781 64.710938 112.847656 68.496094 110.941406 68.644531 L 120.828125 68.011719 L 121.074219 76.203125 L 117.296875 76.410156 L 117.632812 80.59375 L 127.359375 79.167969 C 127.359375 79.167969 138.078125 82.386719 147.109375 80.519531 C 156.136719 78.65625 162.929688 76.378906 162.929688 76.378906 C 162.929688 76.378906 164.671875 84.410156 164.222656 89.589844 C 163.777344 94.769531 163.261719 97.554688 163.261719 97.554688 L 126.257812 98.179688 L 117.878906 98.535156 L 118.917969 173.453125 L 114.550781 173.515625 L 113.519531 98.820312 L 111.179688 98.949219 L 101.289062 114.402344 C 101.289062 114.402344 98.9375 138.695312 98.914062 138.921875 C 98.890625 139.148438 96.917969 156.367188 96.917969 156.367188 C 96.917969 156.367188 91.695312 156.792969 89.628906 155.765625 L 88.253906 134.347656 L 78.09375 149.832031 C 78.09375 149.832031 72.414062 148.601562 71.664062 146.3125 L 86.492188 105.117188 C 86.492188 105.117188 86.085938 97.785156 86.195312 96.410156 C 86.308594 95.035156 86.863281 90.113281 90.101562 88.027344 C 93.34375 85.941406 95.992188 84.542969 100.488281 83.792969 C 104.984375 83.039062 113.210938 81.398438 113.210938 81.398438 L 113.210938 76.65625 L 67.148438 77.609375 L 67.539062 106.035156 L 67.894531 131.585938 L 68.15625 157.660156 L 68.484375 174.148438 L 64.121094 174.210938 L 63.953125 162.292969 L 63.53125 131.585938 L 63.15625 104.601562 L 62.78125 77.566406 C 62.78125 77.566406 59.707031 77.785156 59.695312 77.484375 C 59.679688 77.179688 59.375 70.429688 60.054688 69.761719 C 60.734375 69.09375 63.382812 68.792969 63.382812 68.792969 C 63.382812 68.792969 64.488281 65.734375 68.242188 65.394531 C 71.996094 65.050781 75.175781 64.976562 76.890625 66.085938 L 100.03125 61.523438 L 97.851562 39.285156 L 97.332031 34.738281 C 97.332031 34.738281 93.980469 31.800781 93.027344 30.34375 C 92.074219 28.882812 90.207031 25.441406 89.953125 23.199219 C 89.699219 20.957031 90.320312 16.65625 90.375 16.484375 C 90.433594 16.3125 107.082031 12.128906 107.082031 12.128906 C 107.082031 12.128906 115.175781 13.675781 115.347656 14.246094 C 115.519531 14.820312 119.539062 23.585938 119.539062 23.585938 L 121.492188 28.546875 L 125.136719 32.898438 " fill-opacity="1" fill-rule="nonzero"/></g><path fill="rgb(100%, 100%, 100%)" d="M 113.671875 41.261719 C 113.933594 40.605469 115.011719 40.890625 114.746094 41.558594 C 112.992188 46 111.515625 50.535156 110.128906 55.105469 C 109.921875 55.789062 108.84375 55.5 109.050781 54.808594 C 110.441406 50.238281 111.917969 45.707031 113.671875 41.261719 " fill-opacity="1" fill-rule="nonzero"/><path fill="rgb(100%, 100%, 100%)" d="M 122.476562 38.992188 C 122.359375 38.292969 123.433594 37.992188 123.550781 38.699219 C 124.175781 42.410156 123.96875 46.042969 123.273438 49.726562 C 123.136719 50.429688 122.0625 50.132812 122.195312 49.429688 C 122.859375 45.949219 123.066406 42.5 122.476562 38.992188 " fill-opacity="1" fill-rule="nonzero"/><g clip-path="url(#clip-1)"><path fill="rgb(97.648621%, 78.819275%, 19.999695%)" d="M 163.261719 97.761719 L 126.292969 97.824219 L 126.542969 172.921875 L 131.402344 172.667969 L 130.230469 108.117188 L 163.261719 107.371094 L 164.03125 172.800781 L 168.316406 172.667969 L 167.324219 107.371094 L 167.867188 97.769531 L 179.933594 31.4375 L 174.871094 30.699219 L 163.261719 97.761719 " fill-opacity="1" fill-rule="nonzero"/></g><path fill="rgb(97.648621%, 78.819275%, 19.999695%)" d="M 96.917969 156.367188 C 96.917969 156.367188 92.808594 157.523438 89.628906 155.765625 L 90.148438 162.292969 C 90.148438 162.292969 93.679688 164.085938 96.734375 161.824219 L 96.917969 156.367188 " fill-opacity="1" fill-rule="nonzero"/><path fill="rgb(97.648621%, 78.819275%, 19.999695%)" d="M 77.742188 149.832031 C 77.742188 149.832031 72.699219 149.230469 71.5 145.929688 L 69.398438 150.914062 C 69.398438 150.914062 70.675781 154.234375 74.871094 154.867188 L 77.742188 149.832031 " fill-opacity="1" fill-rule="nonzero"/><path fill="rgb(97.648621%, 78.819275%, 19.999695%)" d="M 110.128906 55.105469 C 111.515625 50.535156 112.992188 46 114.746094 41.558594 C 115.011719 40.890625 113.933594 40.605469 113.671875 41.261719 C 111.917969 45.707031 110.441406 50.238281 109.050781 54.808594 C 108.84375 55.5 109.921875 55.789062 110.128906 55.105469 Z M 123.273438 49.726562 C 123.96875 46.042969 124.175781 42.410156 123.550781 38.699219 C 123.433594 37.992188 122.359375 38.292969 122.476562 38.992188 C 123.066406 42.5 122.859375 45.949219 122.195312 49.429688 C 122.0625 50.132812 123.136719 50.429688 123.273438 49.726562 Z M 115.914062 34.738281 L 117 36.035156 C 117 36.035156 120.285156 33.375 122.433594 36.148438 C 122.433594 36.148438 124.644531 36.15625 125.140625 33.4375 C 125.632812 30.71875 142.296875 42.058594 145.144531 44.726562 C 147.992188 47.394531 160.742188 58.105469 162.929688 76.378906 C 162.929688 76.378906 143.570312 84.085938 127.359375 79.167969 C 127.359375 79.167969 130.316406 66.351562 122.367188 50.480469 C 122.367188 50.480469 120.480469 60.417969 117.914062 65.9375 C 117.914062 65.9375 110.5 63.726562 108.078125 58.4375 L 106.574219 49.347656 C 106.574219 49.347656 114.136719 36.613281 115.914062 34.738281 " fill-opacity="1" fill-rule="nonzero"/><path fill="rgb(0%, 0%, 0%)" d="M 163.46875 76.230469 C 164.707031 83.398438 165.0625 90.71875 163.796875 97.910156 C 163.671875 98.613281 162.597656 98.316406 162.722656 97.613281 C 163.953125 90.632812 163.59375 83.488281 162.394531 76.527344 C 162.273438 75.828125 163.34375 75.527344 163.46875 76.230469 " fill-opacity="1" fill-rule="nonzero"/><g clip-path="url(#clip-2)"><path fill="rgb(0%, 0%, 0%)" d="M 63.347656 78.085938 C 63.492188 88.765625 63.640625 99.445312 63.789062 110.125 C 64.03125 127.515625 64.273438 144.90625 64.511719 162.296875 C 64.5625 166.078125 64.617188 169.863281 64.671875 173.644531 C 65.753906 173.628906 66.835938 173.617188 67.917969 173.601562 C 67.769531 162.882812 67.621094 152.160156 67.472656 141.441406 C 67.234375 124.15625 66.992188 106.871094 66.753906 89.582031 C 66.703125 85.765625 66.648438 81.945312 66.597656 78.125 C 65.511719 78.117188 64.429688 78.097656 63.347656 78.085938 Z M 120.5 75.679688 C 120.421875 73.320312 120.324219 70.960938 120.28125 68.601562 C 117.167969 68.800781 114.054688 69 110.941406 69.199219 C 110.847656 69.207031 110.769531 69.191406 110.699219 69.164062 C 108.335938 70.082031 105.625 69.980469 103.054688 69.011719 C 94.332031 69.105469 85.613281 69.199219 76.890625 69.292969 C 72.390625 69.46875 67.886719 69.136719 63.382812 69.316406 C 62.417969 69.398438 61.570312 69.234375 60.863281 69.953125 C 60.042969 70.789062 60.28125 72.125 60.273438 73.257812 C 60.261719 74.480469 60.222656 75.707031 60.238281 76.933594 C 80.332031 77.277344 100.433594 76.789062 120.5 75.679688 Z M 114.222656 109.285156 C 114.460938 126.714844 114.703125 144.144531 114.945312 161.574219 C 115 165.363281 115.050781 169.15625 115.101562 172.949219 C 116.1875 172.933594 117.269531 172.921875 118.351562 172.90625 C 118.203125 162.242188 118.058594 151.578125 117.910156 140.914062 C 117.667969 123.636719 117.429688 106.363281 117.191406 89.089844 C 117.136719 85.140625 117.082031 81.195312 117.027344 77.25 C 117.023438 77.136719 117.058594 77.046875 117.105469 76.96875 C 115.996094 77.023438 114.886719 77.085938 113.777344 77.140625 C 113.925781 87.855469 114.070312 98.570312 114.222656 109.285156 Z M 77.476562 66.621094 C 77.464844 66.621094 77.457031 66.621094 77.445312 66.621094 C 77.367188 66.640625 77.277344 66.644531 77.179688 66.621094 C 72.925781 65.574219 67.769531 64.613281 64.550781 68.171875 C 68.664062 68.082031 72.78125 68.339844 76.890625 68.179688 C 84.863281 68.09375 92.832031 68.007812 100.800781 67.925781 C 100.652344 67.832031 100.5 67.742188 100.351562 67.644531 C 100.191406 67.539062 100.113281 67.394531 100.097656 67.242188 C 100.09375 67.214844 100.078125 67.195312 100.074219 67.164062 C 99.898438 65.472656 99.71875 63.785156 99.535156 62.097656 C 92.183594 63.601562 84.828125 65.113281 77.476562 66.621094 Z M 110.121094 99.578125 C 107.753906 99.730469 105.390625 99.910156 103.03125 100.183594 C 102.726562 104.273438 102.375 108.355469 101.996094 112.4375 C 104.703125 108.152344 107.414062 103.867188 110.121094 99.578125 Z M 107.769531 35.222656 C 108.074219 35.234375 108.378906 35.230469 108.679688 35.1875 C 110.019531 35.003906 111.445312 32.734375 109.8125 32.132812 C 109.75 32.664062 109.589844 33.183594 109.300781 33.664062 C 108.9375 34.269531 108.398438 34.789062 107.769531 35.222656 Z M 47.425781 145.949219 C 47.429688 145.9375 47.433594 145.925781 47.4375 145.917969 C 47.441406 145.90625 47.449219 145.898438 47.453125 145.886719 C 47.566406 145.644531 47.828125 145.472656 48.117188 145.59375 C 53.121094 146.753906 58.203125 147.503906 63.207031 148.644531 C 63.175781 146.316406 63.144531 143.980469 63.109375 141.652344 C 62.871094 124.261719 62.628906 106.871094 62.386719 89.480469 C 62.335938 85.675781 62.28125 81.875 62.230469 78.070312 C 61.40625 78.058594 60.578125 78.054688 59.753906 78.039062 C 59.429688 78.09375 59.140625 77.789062 59.132812 77.484375 C 59.09375 76.257812 59.140625 75.023438 59.152344 73.796875 C 59.164062 72.621094 58.980469 71.292969 59.296875 70.152344 C 59.808594 68.296875 61.503906 68.332031 63.085938 68.226562 C 66.503906 63.558594 72.332031 64.296875 77.339844 65.515625 C 84.699219 64.003906 92.058594 62.496094 99.417969 60.988281 C 98.488281 52.398438 97.542969 43.816406 97.027344 35.191406 C 92.089844 31.289062 89.078125 25.90625 89.144531 19.570312 C 86.085938 18.902344 82.890625 17.332031 81.730469 14.398438 C 80.40625 11.0625 83.144531 9.046875 86.050781 8.277344 C 91.570312 6.828125 96.789062 5.453125 101.949219 2.910156 C 102.125 2.820312 102.296875 2.832031 102.441406 2.902344 C 108.449219 0.015625 114.851562 3.609375 118.109375 8.972656 C 120.195312 12.410156 121.640625 16.542969 122.339844 20.488281 C 122.804688 23.109375 123.054688 25.996094 121.847656 28.4375 C 123.078125 29.792969 124.304688 31.152344 125.53125 32.507812 C 126.011719 33.035156 125.226562 33.828125 124.746094 33.292969 C 123.472656 31.890625 122.203125 30.488281 120.933594 29.085938 C 117.683594 29.183594 114.128906 27.582031 111.4375 25.871094 C 111.371094 25.84375 111.3125 25.804688 111.261719 25.75 C 111.023438 25.550781 111.023438 25.246094 111.15625 25.023438 C 111.164062 25.011719 111.175781 25 111.183594 24.984375 C 111.195312 24.96875 111.207031 24.949219 111.222656 24.933594 C 111.230469 24.921875 111.242188 24.914062 111.25 24.90625 C 111.269531 24.882812 111.289062 24.867188 111.308594 24.851562 C 111.316406 24.847656 111.320312 24.84375 111.324219 24.839844 C 113.304688 23.40625 113.265625 20.453125 112.636719 18.316406 C 112.359375 17.375 111.945312 16.414062 111.230469 15.710938 C 109.699219 14.199219 105.796875 14.042969 106.238281 17.28125 C 106.242188 17.316406 106.230469 17.34375 106.230469 17.375 C 106.253906 17.617188 106.140625 17.871094 105.847656 17.964844 C 101.394531 19.40625 96 20.332031 91.3125 19.910156 C 90.96875 19.875 90.617188 19.832031 90.261719 19.777344 C 90.269531 25.636719 93.058594 30.546875 97.578125 34.210938 C 99.480469 32.449219 96.058594 28.035156 99.519531 26.800781 C 100.632812 26.40625 101.945312 26.808594 103.0625 26.980469 C 104.675781 27.234375 106.296875 27.449219 107.90625 27.714844 C 108.019531 27.699219 108.136719 27.722656 108.242188 27.804688 C 108.347656 27.855469 108.417969 27.933594 108.453125 28.027344 C 109.140625 28.839844 109.644531 29.890625 109.796875 30.972656 C 109.8125 30.972656 109.832031 30.972656 109.851562 30.976562 C 111.398438 31.316406 111.894531 32.855469 111.457031 34.160156 C 112.449219 33.917969 113.378906 33.46875 114.191406 32.8125 C 114.5 32.566406 114.878906 32.695312 115.0625 32.941406 C 115.105469 32.96875 115.148438 33 115.1875 33.046875 C 115.945312 33.890625 116.636719 34.796875 117.394531 35.640625 C 117.871094 36.175781 117.085938 36.964844 116.605469 36.429688 C 115.882812 35.621094 115.222656 34.765625 114.503906 33.953125 C 113.339844 34.773438 112.042969 35.265625 110.617188 35.429688 C 109.230469 36.695312 107.527344 36.144531 105.769531 36.230469 C 105.359375 36.382812 104.949219 36.5 104.550781 36.589844 C 106.441406 45.050781 107.984375 53.578125 109.171875 62.167969 C 109.269531 62.871094 108.195312 63.171875 108.097656 62.464844 C 106.882812 53.679688 105.300781 44.957031 103.347656 36.304688 C 103.332031 36.226562 103.332031 36.15625 103.339844 36.089844 C 103.339844 35.871094 103.453125 35.667969 103.738281 35.621094 C 105.121094 35.386719 106.507812 34.808594 107.585938 33.90625 C 109.191406 32.5625 108.898438 30.285156 107.644531 28.792969 C 106.339844 28.578125 105.027344 28.390625 103.71875 28.199219 C 103.082031 28.105469 102.230469 27.800781 101.597656 27.867188 C 100.71875 28.238281 99.835938 28.613281 98.960938 28.988281 C 98.851562 29.6875 98.886719 30.382812 99.0625 31.074219 C 99.25 32.546875 99.355469 34.199219 98.140625 35.1875 C 98.773438 45.769531 100.054688 56.292969 101.15625 66.832031 C 105.746094 69.691406 111.539062 69.519531 114.445312 64.429688 C 114.800781 63.808594 115.761719 64.367188 115.40625 64.992188 C 114.699219 66.230469 113.828125 67.21875 112.84375 67.964844 C 115.503906 67.796875 118.164062 67.625 120.828125 67.453125 C 121.089844 67.4375 121.253906 67.578125 121.324219 67.765625 C 121.359375 67.835938 121.382812 67.914062 121.382812 68.011719 C 121.421875 70.746094 121.546875 73.472656 121.632812 76.203125 C 121.640625 76.464844 121.496094 76.628906 121.308594 76.699219 C 121.289062 76.707031 121.269531 76.710938 121.25 76.714844 C 121.195312 76.734375 121.140625 76.757812 121.074219 76.761719 C 120.054688 76.816406 119.035156 76.867188 118.019531 76.921875 C 118.089844 77.007812 118.140625 77.109375 118.140625 77.25 C 118.152344 78.148438 118.167969 79.050781 118.179688 79.949219 C 121.234375 79.460938 124.292969 79.011719 127.359375 78.613281 C 128.066406 78.519531 128.0625 79.632812 127.359375 79.726562 C 124.296875 80.125 121.242188 80.574219 118.195312 81.066406 C 118.273438 86.691406 118.351562 92.316406 118.429688 97.945312 C 121.054688 97.777344 123.679688 97.589844 126.292969 97.269531 C 127.003906 97.183594 127 98.296875 126.292969 98.382812 C 123.683594 98.703125 121.066406 98.890625 118.445312 99.054688 C 118.492188 102.632812 118.542969 106.210938 118.59375 109.789062 C 118.832031 127.066406 119.070312 144.339844 119.3125 161.613281 C 119.363281 165.5625 119.417969 169.507812 119.476562 173.453125 C 119.480469 173.757812 119.214844 174.007812 118.917969 174.011719 C 117.460938 174.03125 116.007812 174.050781 114.550781 174.070312 C 114.25 174.074219 114 173.8125 113.996094 173.515625 C 113.84375 162.636719 113.695312 151.761719 113.542969 140.882812 C 113.351562 127.058594 113.160156 113.234375 112.96875 99.410156 C 112.476562 99.4375 111.984375 99.464844 111.492188 99.496094 C 108.25 104.625 105.007812 109.753906 101.765625 114.882812 C 100.449219 128.621094 98.863281 142.332031 97.792969 156.089844 C 97.738281 156.796875 96.621094 156.804688 96.675781 156.089844 C 98.144531 137.257812 100.582031 118.519531 101.957031 99.683594 C 101.96875 99.484375 102.074219 99.347656 102.207031 99.257812 C 102.285156 99.191406 102.386719 99.140625 102.515625 99.125 C 105.984375 98.707031 109.464844 98.496094 112.953125 98.296875 C 112.910156 95.0625 112.863281 91.828125 112.820312 88.597656 C 112.789062 86.429688 112.757812 84.261719 112.730469 82.09375 C 111.34375 82.445312 109.996094 82.980469 108.609375 83.242188 C 107.359375 83.480469 106.058594 83.53125 104.796875 83.695312 C 101.953125 84.058594 99.09375 84.523438 96.355469 85.40625 C 93.679688 86.265625 91.015625 87.578125 89.179688 89.765625 C 86.453125 93.015625 86.902344 96.953125 87.03125 100.929688 C 87.398438 111.886719 88.035156 122.832031 88.738281 133.777344 C 88.804688 133.894531 88.824219 134.035156 88.761719 134.183594 C 89.21875 141.28125 89.703125 148.375 90.167969 155.46875 C 90.210938 156.183594 89.097656 156.183594 89.050781 155.46875 C 88.625 148.929688 88.152344 142.382812 87.699219 135.832031 C 84.6875 140.492188 81.929688 145.304688 78.746094 149.851562 C 78.335938 150.433594 77.371094 149.878906 77.78125 149.289062 C 81.257812 144.324219 84.226562 139.039062 87.570312 133.992188 C 86.984375 125.410156 86.441406 116.824219 86.105469 108.238281 C 82.042969 121.226562 77.363281 134.007812 71.875 146.46875 C 71.585938 147.125 70.625 146.558594 70.910156 145.90625 C 76.777344 132.585938 81.714844 118.886719 85.957031 104.96875 C 85.960938 104.945312 85.972656 104.925781 85.984375 104.902344 C 85.886719 101.945312 85.8125 98.992188 85.773438 96.03125 C 85.699219 90.660156 89.730469 86.789062 94.441406 84.914062 C 97.15625 83.828125 100.050781 83.257812 102.933594 82.835938 C 104.289062 82.636719 105.65625 82.472656 107.019531 82.3125 C 108.964844 82.085938 110.804688 81.378906 112.714844 80.953125 C 112.695312 79.699219 112.679688 78.445312 112.660156 77.191406 C 97.6875 77.898438 82.699219 78.242188 67.710938 78.136719 C 67.859375 88.863281 68.007812 99.589844 68.15625 110.3125 C 68.339844 123.582031 68.523438 136.847656 68.707031 150.117188 C 68.914062 150.179688 69.121094 150.242188 69.324219 150.308594 C 69.410156 150.308594 69.492188 150.335938 69.570312 150.386719 C 69.855469 150.492188 69.960938 150.75 69.929688 150.992188 C 70.886719 152.769531 72.855469 154.152344 74.871094 154.308594 C 75.425781 154.355469 75.546875 155.035156 75.234375 155.308594 C 75.222656 155.375 75.195312 155.441406 75.152344 155.511719 C 73.792969 157.621094 72.4375 159.734375 71.078125 161.84375 C 71.035156 161.910156 70.984375 161.960938 70.933594 162 C 70.777344 162.140625 70.550781 162.195312 70.316406 162.042969 C 69.828125 161.726562 69.34375 161.40625 68.859375 161.082031 C 68.863281 161.445312 68.871094 161.808594 68.875 162.171875 C 68.902344 164.117188 68.929688 166.0625 68.957031 168.003906 C 75.839844 165.480469 82.847656 163.394531 90 161.757812 C 90.136719 161.726562 90.257812 161.742188 90.359375 161.792969 C 90.382812 161.800781 90.40625 161.804688 90.429688 161.8125 C 92.335938 162.644531 94.363281 162.332031 96.191406 161.472656 C 96.273438 160.820312 97.308594 160.835938 97.289062 161.53125 C 97.289062 161.613281 97.289062 161.691406 97.285156 161.773438 C 97.300781 161.84375 97.300781 161.917969 97.285156 161.984375 C 97.230469 164.488281 97.28125 166.992188 97.160156 169.496094 C 97.152344 169.71875 97.03125 169.863281 96.875 169.945312 C 96.847656 169.964844 96.820312 169.980469 96.789062 169.996094 C 96.785156 169.996094 96.78125 169.996094 96.78125 170 C 96.726562 170.023438 96.671875 170.046875 96.605469 170.050781 C 87.371094 170.949219 78.164062 170.609375 68.976562 169.421875 C 68.996094 171 69.019531 172.574219 69.042969 174.148438 C 69.046875 174.453125 68.78125 174.703125 68.484375 174.707031 C 67.027344 174.726562 65.574219 174.746094 64.121094 174.765625 C 63.816406 174.769531 63.566406 174.507812 63.5625 174.210938 C 63.484375 168.582031 63.40625 162.953125 63.328125 157.324219 C 58.160156 153.6875 53.015625 150.023438 47.683594 146.625 C 47.398438 146.507812 47.332031 146.203125 47.425781 145.949219 " fill-opacity="1" fill-rule="nonzero"/></g></svg>