<?xml version="1.0" encoding="UTF-8"?><svg xmlns="http://www.w3.org/2000/svg" xmlns:xlink="http://www.w3.org/1999/xlink" width="180" zoomAndPan="magnify" viewBox="0 0 180 179.999997" height="179.999997" preserveAspectRatio="xMidYMid meet" version="1.0"><defs><clipPath id="clip-0"><path d="M 90.171875 0 L 173.089844 0 L 173.089844 180 L 90.171875 180 Z M 90.171875 0 " clip-rule="nonzero"/></clipPath></defs><path fill="rgb(100%, 100%, 100%)" d="M 144.449219 84.207031 C 140.503906 96.394531 127.9375 97.191406 123.035156 92.648438 C 123.035156 92.648438 120.324219 91.152344 121.066406 86.972656 C 121.066406 86.972656 110.285156 89.144531 98.121094 84.617188 L 97.378906 108.621094 C 97.378906 108.621094 94.65625 108.507812 94.183594 105.679688 C 93.714844 102.851562 92.863281 95.703125 92.433594 94.078125 C 92 92.453125 91.34375 86.746094 90.988281 82.1875 C 90.628906 77.640625 90.605469 66.824219 95.433594 58.648438 C 95.433594 58.648438 100.535156 45.285156 112.25 43.53125 L 112.277344 38.597656 C 112.277344 38.597656 104.816406 36.535156 101.546875 28.449219 C 101.546875 28.449219 97.378906 29.714844 95.523438 26.339844 C 93.667969 22.960938 96.132812 17.746094 100.460938 20.648438 C 100.460938 20.648438 109.949219 17.839844 111.894531 12.046875 C 111.894531 12.046875 115.101562 20.542969 121.617188 22.011719 C 121.617188 22.011719 121.097656 18.113281 122.425781 16.722656 C 122.425781 16.722656 126.414062 25.488281 133.535156 27.5 C 133.535156 27.5 135 24.507812 137.488281 25.40625 C 141.160156 26.734375 139.996094 33.046875 132.765625 32.402344 C 132.765625 32.402344 129.351562 36.621094 121.066406 39.058594 L 121.054688 43.835938 C 121.054688 43.835938 130.570312 44.640625 137.226562 52.875 C 144.320312 61.660156 148.394531 72.015625 144.449219 84.207031 " fill-opacity="1" fill-rule="nonzero"/><path fill="rgb(97.648621%, 78.819275%, 19.999695%)" d="M 127.761719 68.59375 C 127.761719 68.59375 127.761719 66.648438 125.996094 66.589844 C 124.230469 66.527344 123.878906 68.15625 123.878906 68.15625 C 123.878906 68.15625 123.542969 88.542969 123.542969 88.777344 L 127.066406 89.730469 Z M 127.511719 91.179688 L 122.375 89.765625 L 122.375 86.972656 L 123.082031 67.777344 C 123.082031 67.777344 121.957031 66.371094 120.808594 67.824219 C 120.105469 68.710938 120.574219 71.527344 120.609375 75.203125 C 120.671875 81.703125 120.632812 85.605469 120.617188 86.804688 L 119.507812 86.699219 L 119.507812 68.027344 C 119.507812 68.027344 118.957031 66.722656 121.828125 65.222656 C 124.695312 63.726562 128.640625 61.742188 128.640625 61.742188 C 128.640625 61.742188 131.800781 70.140625 132.148438 73.25 C 132.5 76.359375 133.171875 83.347656 127.511719 91.179688 Z M 145.953125 74.90625 C 146.429688 80.15625 143.328125 87.203125 143.328125 87.203125 L 149.378906 85.25 C 149.378906 85.25 148.132812 66.65625 147.652344 62.449219 C 147.175781 58.242188 144.449219 58.84375 144.449219 58.84375 C 143.621094 56.160156 140.238281 58.128906 140.238281 58.128906 C 145.007812 66.671875 145.480469 69.707031 145.953125 74.90625 Z M 98.121094 84.617188 C 98.121094 84.617188 96.398438 107.140625 98.0625 119.257812 C 99.722656 131.375 102.367188 147.863281 107.714844 162.300781 C 107.714844 162.300781 115.171875 166.023438 125.523438 162.746094 L 123.167969 127.082031 C 123.167969 127.082031 127.628906 128.597656 135.644531 126.964844 C 143.660156 125.332031 153.96875 122.375 153.96875 122.375 L 151.890625 107.570312 L 132.433594 110.828125 L 135.644531 94.054688 C 135.644531 94.054688 131.589844 95.355469 127.703125 94.675781 C 123.816406 93.992188 120.269531 91.765625 121.066406 86.972656 C 121.066406 86.972656 110.269531 88.835938 98.121094 84.617188 Z M 107.714844 49.234375 C 107.714844 49.234375 115.875 48.25 121.066406 49.550781 C 121.066406 49.550781 113.882812 58.480469 112.664062 69.082031 C 112.664062 69.082031 108.390625 63.710938 107.714844 49.234375 " fill-opacity="1" fill-rule="nonzero"/><g clip-path="url(#clip-0)"><path fill="rgb(0%, 0%, 0%)" d="M 173.078125 129.433594 C 171.40625 121.910156 167.597656 114.953125 161.84375 109.8125 C 163.734375 109.359375 165.605469 108.832031 167.449219 108.195312 C 167.5 108.179688 167.542969 108.152344 167.578125 108.125 C 167.730469 108.035156 167.824219 107.871094 167.757812 107.652344 C 167.554688 107.003906 167.347656 106.359375 167.144531 105.710938 C 167.03125 105.355469 166.625 105.332031 166.410156 105.515625 C 161.675781 106.601562 157.042969 107.960938 152.472656 109.609375 C 152.175781 109.714844 152.117188 110.03125 152.21875 110.253906 L 153.308594 117.679688 C 153.269531 117.886719 153.34375 118.128906 153.59375 118.226562 C 160.488281 120.894531 167.589844 123.820312 172.261719 129.765625 C 172.292969 129.835938 172.339844 129.886719 172.398438 129.925781 C 172.566406 130.078125 172.777344 130.023438 172.914062 129.882812 C 173.042969 129.789062 173.121094 129.628906 173.078125 129.433594 Z M 124.285156 178.003906 C 123.78125 173.292969 123.453125 168.574219 123.300781 163.839844 C 123.289062 163.414062 122.785156 163.304688 122.546875 163.523438 C 118.789062 164.285156 115.066406 164.023438 114.292969 163.957031 C 114.105469 163.847656 113.855469 163.867188 113.738281 164.121094 C 110.644531 170.691406 105.835938 175.222656 99.828125 179.121094 C 99.703125 179.167969 99.628906 179.265625 99.59375 179.382812 C 99.5625 179.480469 99.566406 179.582031 99.597656 179.675781 C 99.601562 179.679688 99.601562 179.679688 99.601562 179.683594 C 99.667969 179.878906 99.855469 180.027344 100.066406 179.984375 C 107.71875 180.355469 114.789062 177.878906 120.078125 172.347656 C 120.238281 174.324219 120.398438 176.300781 120.558594 178.277344 C 120.558594 178.3125 120.574219 178.335938 120.582031 178.367188 C 120.582031 178.539062 120.667969 178.707031 120.898438 178.75 C 122.003906 178.945312 122.992188 178.921875 124.023438 178.453125 C 124.097656 178.433594 124.160156 178.394531 124.207031 178.335938 C 124.234375 178.308594 124.253906 178.277344 124.269531 178.242188 C 124.269531 178.238281 124.269531 178.238281 124.273438 178.238281 C 124.304688 178.164062 124.304688 178.082031 124.285156 178.003906 Z M 133.121094 27.078125 C 127.992188 26.234375 123.828125 23.277344 121.648438 18.679688 C 121.785156 19.882812 122.167969 21.109375 122.503906 22.191406 C 122.539062 22.246094 122.554688 22.308594 122.558594 22.375 C 122.617188 22.648438 122.425781 22.832031 122.203125 22.871094 C 122.199219 22.871094 122.199219 22.871094 122.195312 22.871094 C 122.15625 22.878906 122.113281 22.878906 122.074219 22.875 C 122.050781 22.875 122.03125 22.882812 122.007812 22.878906 C 117.285156 22.148438 113.109375 18.457031 111.660156 13.941406 C 108.398438 17.148438 105.058594 19.910156 100.664062 21.402344 C 100.523438 29.3125 105.796875 36.691406 113.761719 38.304688 C 121.949219 39.964844 129.992188 34.515625 133.121094 27.078125 Z M 100.769531 27.65625 C 100.066406 25.609375 99.71875 23.421875 99.785156 21.199219 C 98.894531 19.5 96.699219 20.363281 95.894531 21.738281 C 95.347656 22.679688 95.175781 23.894531 95.425781 24.949219 C 95.902344 26.945312 98.8125 29.390625 100.769531 27.65625 Z M 137.878906 26.003906 C 136.710938 25.238281 134.738281 25.667969 134.121094 26.949219 C 133.484375 28.5625 132.628906 30.09375 131.601562 31.492188 C 133.570312 32.460938 136.253906 32.546875 137.890625 30.929688 C 139.207031 29.632812 139.640625 27.152344 137.878906 26.003906 Z M 144.363281 66.695312 C 146.304688 72.515625 146.925781 78.945312 144.707031 84.773438 C 143.144531 88.878906 140.328125 93.25 135.871094 94.503906 C 135.734375 94.542969 135.617188 94.515625 135.523438 94.457031 C 132.632812 92.898438 130.660156 91.136719 130.078125 88.089844 C 129.46875 89.164062 128.78125 90.203125 128.03125 91.210938 C 127.695312 91.664062 126.929688 91.222656 127.269531 90.765625 C 129.816406 87.347656 131.683594 83.5625 132.011719 79.25 C 132.503906 72.800781 130.167969 66.394531 127.582031 60.613281 C 127.351562 60.097656 128.109375 59.648438 128.34375 60.164062 C 130.992188 66.089844 133.398438 72.640625 132.894531 79.25 C 132.6875 81.921875 131.933594 84.402344 130.796875 86.726562 C 130.980469 90.238281 132.90625 92.011719 135.800781 93.597656 C 140.324219 92.222656 143.070312 87.3125 144.367188 83.050781 C 146.039062 77.546875 145.164062 71.582031 143.28125 66.25 C 141.535156 61.324219 139.398438 55.710938 135.730469 51.875 C 132.941406 48.957031 129.027344 46.832031 125.019531 45.632812 C 123.777344 47.054688 122.488281 48.429688 121.242188 49.84375 C 120.867188 50.269531 120.246094 49.640625 120.621094 49.21875 C 121.757812 47.925781 122.929688 46.660156 124.070312 45.371094 C 122.910156 45.066406 121.75 44.835938 120.609375 44.695312 C 120.558594 44.6875 120.511719 44.675781 120.46875 44.65625 C 120.457031 44.652344 120.445312 44.640625 120.429688 44.636719 C 120.429688 44.636719 120.425781 44.632812 120.425781 44.632812 C 120.285156 44.574219 120.175781 44.449219 120.167969 44.253906 C 120.113281 42.542969 120.109375 40.835938 120.144531 39.128906 C 118.1875 39.542969 116.144531 39.613281 114.078125 39.261719 C 113.804688 39.214844 113.535156 39.160156 113.273438 39.101562 C 113.339844 40.59375 113.332031 42.085938 113.417969 43.574219 C 113.417969 43.59375 113.410156 43.609375 113.410156 43.625 C 113.410156 43.667969 113.40625 43.710938 113.394531 43.75 C 113.390625 43.757812 113.386719 43.765625 113.386719 43.773438 C 113.34375 43.882812 113.25 43.972656 113.09375 44 C 111.394531 44.328125 109.804688 44.855469 108.316406 45.535156 C 108.15625 46.726562 108.199219 48.027344 108.351562 49.210938 C 108.425781 49.773438 107.542969 49.765625 107.46875 49.210938 C 107.332031 48.167969 107.300781 47.058594 107.390625 45.988281 C 99.117188 50.28125 94.277344 59.710938 92.1875 68.746094 C 90.5 76.039062 91.285156 83.054688 92.015625 90.390625 C 92.070312 90.941406 92.167969 91.476562 92.285156 92.011719 C 92.289062 92.011719 92.292969 92.011719 92.296875 92.015625 C 94.226562 92.652344 95.726562 92.730469 97.460938 91.566406 C 97.933594 91.25 98.375 92.015625 97.90625 92.328125 C 96.121094 93.527344 94.480469 93.578125 92.535156 93.011719 C 93.101562 95.070312 93.890625 97.058594 94.015625 99.242188 C 94.1875 102.265625 93.632812 107.761719 97.496094 108.765625 C 98.046875 108.90625 97.808594 109.757812 97.261719 109.617188 C 95.117188 109.058594 93.996094 107 93.535156 104.949219 C 92.824219 101.78125 93.421875 98.535156 92.417969 95.394531 C 91.96875 93.992188 91.410156 92.632812 91.207031 91.164062 C 91.023438 89.832031 90.992188 88.476562 90.824219 87.140625 C 90.429688 83.988281 90.097656 80.882812 90.1875 77.699219 C 90.347656 71.917969 91.589844 66.339844 93.824219 61.011719 C 95.820312 56.257812 98.523438 51.851562 102.160156 48.550781 C 99.785156 48.511719 97.890625 47.796875 96.125 45.90625 C 96.089844 45.867188 96.0625 45.828125 96.042969 45.785156 C 96.042969 45.78125 96.039062 45.773438 96.035156 45.769531 C 96.015625 45.722656 96.007812 45.675781 96.003906 45.628906 C 96.003906 45.617188 95.996094 45.605469 95.996094 45.59375 C 95.8125 39.75 95.972656 33.90625 96.277344 28.070312 C 96.28125 27.988281 96.304688 27.917969 96.339844 27.859375 C 95.238281 26.84375 94.457031 25.378906 94.429688 24.027344 C 94.40625 22.789062 94.859375 21.429688 95.714844 20.480469 C 94.410156 10.355469 102.960938 1.773438 112.890625 1.53125 C 119.359375 -1.605469 127.1875 0.300781 132.269531 5.167969 C 134.949219 7.734375 137.023438 11.25 138.277344 14.730469 C 139.546875 18.25 139.214844 21.761719 138.09375 25.269531 C 139.234375 25.957031 140.066406 27.210938 139.925781 28.722656 C 139.714844 30.953125 138.222656 32.246094 136.382812 32.753906 C 136.609375 36.789062 136.675781 40.824219 136.578125 44.863281 C 136.589844 44.976562 136.554688 45.097656 136.449219 45.199219 C 135.132812 46.480469 133.296875 47.289062 131.441406 47.457031 C 133.175781 48.464844 134.777344 49.660156 136.140625 51.035156 C 140.179688 55.113281 142.570312 61.328125 144.363281 66.695312 Z M 108.160156 90.988281 C 108.117188 90.425781 107.234375 90.421875 107.277344 90.988281 C 108.304688 104.070312 110.621094 119.246094 122.496094 127.113281 C 122.96875 127.429688 123.414062 126.664062 122.941406 126.351562 C 111.355469 118.671875 109.164062 103.722656 108.160156 90.988281 Z M 98.613281 84.308594 C 106.339844 86.667969 113.933594 87.511719 121.992188 86.703125 C 122.558594 86.644531 122.554688 87.53125 121.992188 87.585938 C 113.734375 88.414062 105.980469 87.527344 98.0625 85.066406 C 97.929688 85.023438 97.84375 84.941406 97.796875 84.84375 C 97.765625 84.785156 97.738281 84.71875 97.734375 84.640625 C 97.324219 73.183594 99.546875 62.164062 103.8125 51.558594 C 104.023438 51.035156 104.875 51.265625 104.664062 51.792969 C 100.46875 62.222656 98.253906 73.046875 98.613281 84.308594 " fill-opacity="1" fill-rule="nonzero"/></g></svg>