<svg width="26" height="26" viewBox="0 0 26 26" fill="none" xmlns="http://www.w3.org/2000/svg">
<path d="M19.8436 19.321H24.8428C24.2469 14.7173 21.9474 13.4707 19.1997 13.4707C17.9996 13.4707 16.8854 13.7073 15.9606 14.3591C17.8936 15.1238 19.1786 16.7682 19.8436 19.321Z" fill="black"/>
<path d="M19.1996 5.48462C18.3126 5.48462 17.5043 5.81376 16.8845 6.35517C17.3922 7.09783 17.6885 7.9966 17.6885 8.96332C17.6885 9.95851 17.3711 10.8805 16.8353 11.6364C17.4615 12.2033 18.2884 12.552 19.1996 12.552C21.1494 12.552 22.7321 10.9694 22.7321 9.01674C22.7321 7.06636 21.1494 5.48462 19.1996 5.48462Z" fill="black"/>
<path d="M6.1495 19.321H1.15137C1.74632 14.7173 4.04665 13.4707 6.79511 13.4707C7.99392 13.4707 9.10822 13.7073 10.0327 14.3591C8.1005 15.1238 6.81555 16.7682 6.1495 19.321Z" fill="black"/>
<path d="M6.7951 5.48462C7.68195 5.48462 8.48893 5.81376 9.10985 6.35517C8.60241 7.09783 8.30462 7.9966 8.30462 8.96332C8.30462 9.95851 8.62297 10.8805 9.15925 11.6364C8.53232 12.2033 7.70477 12.552 6.7951 12.552C4.84409 12.552 3.26172 10.9694 3.26172 9.01674C3.26172 7.06636 4.84409 5.48462 6.7951 5.48462Z" fill="black"/>
<path d="M19.7326 21.2621C19.0229 15.7678 16.2772 14.2773 12.9974 14.2773C9.71676 14.2773 6.97181 15.7678 6.2605 21.2621H19.7326Z" fill="black"/>
<path d="M17.2132 8.96344C17.2132 11.292 15.3253 13.1808 12.9973 13.1808C10.668 13.1808 8.78149 11.292 8.78149 8.96344C8.78149 6.6349 10.668 4.74634 12.9973 4.74634C15.3253 4.74634 17.2132 6.6349 17.2132 8.96344Z" fill="black"/>
</svg>
