<svg width="25" height="25" viewBox="0 0 25 25" fill="none" xmlns="http://www.w3.org/2000/svg">
<path d="M12.5018 16.7089C9.63876 16.7089 7.31767 14.3872 7.31767 11.523C7.31767 8.65886 9.63876 6.33694 12.5018 6.33694C15.3649 6.33694 17.6859 8.65886 17.6859 11.523C17.6859 14.3872 15.3649 16.7089 12.5018 16.7089ZM12.5018 0.801514C6.58248 0.801514 1.78418 5.60162 1.78418 11.523C1.78418 17.4442 6.58248 22.2445 12.5018 22.2445C18.4209 22.2445 23.2194 17.4442 23.2194 11.523C23.2194 5.60162 18.4209 0.801514 12.5018 0.801514Z" fill="black"/>
<path d="M7.31767 11.5229C7.31767 8.77645 9.45213 6.52867 12.1521 6.34903V0.892822C6.40248 1.03159 1.78418 5.73778 1.78418 11.5229C1.78418 17.3081 6.40248 22.0143 12.1521 22.1531V16.6969C9.45213 16.517 7.31767 14.2694 7.31767 11.5229Z" fill="black"/>
<path d="M12.3076 12.1377L16.8629 24.2049L21.4177 20.4756L12.3076 12.1377Z" fill="black"/>
</svg>
