<svg width="25" height="25" viewBox="0 0 25 25" fill="none" xmlns="http://www.w3.org/2000/svg">
<path d="M3.67331 20.8709V2.28399C3.67331 2.02176 3.88768 1.8074 4.1499 1.8074H8.91577C9.17787 1.8074 9.39235 2.02176 9.39235 2.28399V20.8709C9.39235 21.1331 9.17787 21.3475 8.91577 21.3475H4.1499C3.88768 21.3475 3.67331 21.1354 3.67331 20.8709ZM15.9025 21.0521C15.974 21.2427 16.1551 21.3594 16.3481 21.3594C16.403 21.3594 16.4601 21.3499 16.515 21.3284L20.9829 19.6699C21.1022 19.6246 21.1998 19.5365 21.2523 19.4198C21.3047 19.3029 21.3094 19.1719 21.2642 19.0528L14.7968 2.10519C14.7039 1.85973 14.4298 1.7382 14.1868 1.82874L9.71884 3.48733C9.5996 3.53254 9.50195 3.62079 9.4495 3.7375C9.39706 3.85432 9.39235 3.98538 9.43757 4.10449L15.9025 21.0521ZM22.7369 10.8625C22.4747 10.8625 22.2603 11.077 22.2603 11.3391V22.3007H2.72014V11.3391C2.72014 11.077 2.50566 10.8625 2.24355 10.8625C1.98133 10.8625 1.76697 11.077 1.76697 11.3391V22.7773C1.76697 23.0394 1.98133 23.2539 2.24355 23.2539H22.7369C22.999 23.2539 23.2135 23.0394 23.2135 22.7773V11.3391C23.2135 11.077 22.999 10.8625 22.7369 10.8625Z" fill="black"/>
</svg>
