<svg id="Layer_1" data-name="Layer 1" xmlns="http://www.w3.org/2000/svg" xmlns:xlink="http://www.w3.org/1999/xlink" viewBox="0 0 314 199.61"><defs><style>.cls-1{fill:none;}.cls-2{clip-path:url(#clip-path);}.cls-3{fill:#f9ca33;}.cls-4{fill:#010101;}.cls-5{fill:#fff;}</style><clipPath id="clip-path" transform="translate(-140.8 -322.27)"><rect class="cls-1" x="139.82" y="319.8" width="315.91" height="168.08"/></clipPath></defs><g class="cls-2"><path class="cls-3" d="M165.82,421.72a26.44,26.44,0,0,1,4.4-4.56c-.5.15-1,.27-1.47.38ZM198,415c1,.71,2.06,1.46,3,2.25l-2.17-2Zm-23,.13h0Zm32.7,8.36-3-2.81c.4.43.77.84,1.13,1.25Zm95.17-67.63L283.62,464a8.64,8.64,0,0,1-8.51,7.12h-29.8l-3.83,0v0H227.85v0a.41.41,0,0,1-.41.41h0a.41.41,0,0,1-.41-.41v0H148a7.23,7.23,0,0,1-7.12-8.5l6.26-35.17,3.55-19.95c-3.07-1.14-7.73-4.05-8.73-11.41-1.51-11.19,7.57-13.92,8.94-20.58s5.14-25.87,18.17-32.22c8.25-4,21.94-3,31.3,4.08h95.35A7.24,7.24,0,0,1,302.88,355.84Zm151.8,0-1.95,10.93-.23,1.31-.24,1.31L451,376.63l-1.15,6.49L448,393.37,445.57,407l-1.34,7.49-2,11.48-6.77,38a8.64,8.64,0,0,1-8.51,7.12H362.48a72.28,72.28,0,0,1,6.95,4.71c8,6.51,10.45,20.88,10,26.18a50.65,50.65,0,0,1-3.79,14.37,4.07,4.07,0,0,1-2.19,2c-.05.11-.12.22-.18.34a.41.41,0,0,1-.36.21.49.49,0,0,1-.2,0l-.05-.05a2.78,2.78,0,0,1-3,.89l-.11.13a.41.41,0,0,1-.31.14.47.47,0,0,1-.22-.07c-.84,1.18-1.59,1.12-2,.93a.41.41,0,0,1-.34.2.65.65,0,0,1-.19,0c-.81,1.41-2.23,1.16-2.09-.52s1.06-8.17-.15-12.86-3.33-17.1-3.33-17.1-49.59-16.08-57.24-19.19c-1.29,0-2.58-.08-3.87-.21a7.23,7.23,0,0,1-7.12-8.5l.46-2.62a30.2,30.2,0,0,1-2.93-11.16,28.33,28.33,0,0,1,4.33,3.32L312,354.45a8.64,8.64,0,0,1,8.51-7.12H333a28.52,28.52,0,0,1,2.06-7.56,8.54,8.54,0,0,1,.47-.89c-2.6-2.13-5.14-4.88-3.8-6.67,2.27-3,20.29-10.9,31.8-9.84s13.48,10,13.48,10c5.46,5.37,7,10.35,6.9,15h63.67A7.24,7.24,0,0,1,454.68,355.84Z" transform="translate(-140.8 -322.27)"/><path class="cls-4" d="M287.61,364.2a.4.4,0,0,0-.34-.47h0a5.27,5.27,0,0,0-5.13-.9c-2.17.62-3.45,3.15-3.44,5.24A3.33,3.33,0,0,0,281,371.5a5.18,5.18,0,0,0,1.31.17,5.86,5.86,0,0,0,3.38-1.18l-.14.84a.41.41,0,0,0,.34.47H286a.42.42,0,0,0,.41-.35ZM274,365.35a.42.42,0,0,0-.42-.42h-4.84a.42.42,0,0,0-.42.42.41.41,0,0,0,.42.41h4.84A.41.41,0,0,0,274,365.35Zm-.3,1.51a.42.42,0,0,0-.42-.42h-4.84a.42.42,0,0,0-.42.42.41.41,0,0,0,.42.41h4.84A.41.41,0,0,0,273.69,366.86Zm-10.27-3.56a.41.41,0,0,0-.53.25s-1.3,3.65-2.57,6.68a2.75,2.75,0,0,1-2.11-.65c-1.95-1.65-2.24-5.73-2.24-5.77a.41.41,0,1,0-.82.05c0,.18.3,4.48,2.51,6.36a3.61,3.61,0,0,0,2.29.86c-.28.66-.57,1.29-.83,1.81a3.12,3.12,0,0,1-2.94,1.85,2.77,2.77,0,0,1-2.51-1.53.42.42,0,0,0-.55-.22.41.41,0,0,0-.21.55,3.61,3.61,0,0,0,3.24,2h.12a4,4,0,0,0,3.59-2.31c1.51-3,3.71-9.17,3.81-9.43A.4.4,0,0,0,263.42,363.3Zm-13.36,3.56a.41.41,0,0,0-.41-.42h-3l.23-2.57a.41.41,0,0,0-.37-.45.42.42,0,0,0-.45.38l-.24,2.65h-3.44a.42.42,0,0,0,0,.83h3.36l-.29,3.18a.41.41,0,0,0,.38.44h0a.41.41,0,0,0,.41-.37l.29-3.26h3.08A.41.41,0,0,0,250.06,366.86Zm-16.9.72,3.16-3.15a.42.42,0,0,0,0-.59.44.44,0,0,0-.59,0L232.59,367l-2.93-3.13a.41.41,0,0,0-.6.56l2.95,3.15-3.24,3.24a.41.41,0,0,0,0,.58.4.4,0,0,0,.29.12.44.44,0,0,0,.3-.12l3.22-3.22,3.15,3.37a.39.39,0,0,0,.29.13.44.44,0,0,0,.29-.11.41.41,0,0,0,0-.58Zm69.72-11.74L283.62,464a8.64,8.64,0,0,1-8.51,7.12H253.53c-.58-3-1.37-6.72-2.45-11.12-4-16.25-13.4-28.8-25.68-32.22a178.9,178.9,0,0,0-17.69-4.27l-8.84-8.27c-17.41-4.85-29.68,1.71-29.68,1.71l-4,5.7-18,4.8,13-73a8.63,8.63,0,0,1,8.5-7.12H295.75A7.24,7.24,0,0,1,302.88,355.84Zm-20.56,7.79c-1.76.5-2.84,2.69-2.84,4.44a2.53,2.53,0,0,0,1.77,2.64,5,5,0,0,0,4.45-1.26.37.37,0,0,1,.22-.1l.82-4.93C286.62,364.28,285.14,362.82,282.32,363.63ZM310.67,468c8.75-5,9.53-26.38,9.53-26.38-6,2.65-9.67,8.74-11.89,14.37.49-10.33-3.36-20.47-3.36-20.47A69.22,69.22,0,0,0,302,464.65c-1.69-9.9-11.78-15.85-11.78-15.85.28,10.53,9.58,22.29,9.58,22.29,18.18,1.78,37.56-7.88,37.56-7.88C326,461.34,314.12,466.35,310.67,468ZM447.33,353.24c0,5.4,2.93,11.22,5.17,14.84l1.25-7A25.79,25.79,0,0,0,447.33,353.24Zm-45.79,57.3c13.73,6.69,32.92,5.27,42.69,3.94l1.34-7.52C421.68,400,401.54,410.54,401.54,410.54Zm3.18-27.92c11.55,13.21,33.88,19.35,41.43,21.11l1.2-6.77C427.89,380.7,404.72,382.62,404.72,382.62Zm13.92-22.21c5.61,15,21.67,27.58,29.35,33l1.83-10.26A64.6,64.6,0,0,0,418.64,360.41Zm33.63,9-2,11.17c-5.4-6.12-12.59-15.83-14.35-25.74A49.93,49.93,0,0,1,452.27,369.39Z" transform="translate(-140.8 -322.27)"/><path class="cls-3" d="M258.09,428.22c-10.58-12.51-25.24-4.84-25.24-4.84C246.49,435.37,258.09,428.22,258.09,428.22Zm-60.52-13.55s2,5.9,1.05,8.48c4.85,6.35,9.09,5,9.85,3.63S204.08,418.91,197.57,414.67Zm65.72,31.75c-6.63-15-22.87-11.74-22.87-11.74C250.13,450,263.29,446.42,263.29,446.42Zm-6.09,15.07c16.48,7.64,25.58-2.5,25.58-2.5C269.08,450,257.2,461.49,257.2,461.49Zm22.31-28.25c-7.21,16.66,3.17,25.49,3.17,25.49C291.33,444.81,279.51,433.24,279.51,433.24ZM250,416.2c-5.74-6.79-13.68-2.63-13.68-2.63C243.69,420.07,250,416.2,250,416.2Zm12.28-13.6c-11.63,13.94-4.18,25.34-4.18,25.34C270.32,417,262.26,402.6,262.26,402.6Zm1.09,43.55c14.82-7,11.15-23.15,11.15-23.15C259.4,433.1,263.35,446.15,263.35,446.15Zm-89.1-31.63a25.17,25.17,0,0,0-9.05,8.09,27,27,0,0,0,12.38,8.85c7.88,2.57,13.18-8.93,13.18-8.93S185.31,423.29,174.25,414.52Zm78-12.22C245.93,409.86,250,416,250,416,256.61,410.13,252.24,402.3,252.24,402.3Zm190,23.65-6.77,38a8.63,8.63,0,0,1-8.5,7.12H370.45l-8.94-26.8-20.83,10-28.81-20.53s24.54-24.52,29.39-27.09,13.41-6.56,13.41-6.56L356,395.9l8.62,7.45.37-9.83,14-10.26L387.2,385s6-2.28,19.4-5.41c9.42-2.21,20,.52,26.5,8.57a64.58,64.58,0,0,0-28.38-5.52c8.9,10.18,24.21,16.16,34.21,19.17.23,1.3.44,2.55.64,3.77a64.75,64.75,0,0,0-38,5c12.33,6,29,5.47,39.4,4.34C441.56,419.53,442,423.28,442.19,426Z" transform="translate(-140.8 -322.27)"/><path class="cls-5" d="M331,371.09a87.86,87.86,0,0,0,.61,9.08c.6,5.3,5.75,9.38,9.84,9.08s12.72-1.51,12.72-1.51l3,9.53L365.4,405l-.46-11.5,10.84-7.76L372.15,377s16.35-25.42,2.87-41.3-36.64-3.48-40,4.08-2,14.83-3.33,19.52-4.09,8.78-3.63,10S331,371.09,331,371.09Zm78,71.88-.15,16S369,421.63,366.85,420.27s-7.27-18.61-9.39-19.67c-1.69-.85-9.53.15-9.69,1.36-.13,1.05.46,1.51,1.82,1.82s4.54.9,4.54.9a12.56,12.56,0,0,1,.45,3.18c0,1.67-2.11.91-3.93-1.06s-4.85-5.89-4.85-5.89-3-5.9-3.93-7.57-2.72-1-2.42.61,3,9.23,3,9.23-3.79,6.21-4.09,8.32.15,5.75,2.27,7.26,10.9,7.72,13,9.38,6.35,8.63,9.08,12.26c1.57,2.09,12.12,17.76,20.79,30.7h43.37a8.63,8.63,0,0,0,8.5-7.13l4.18-23.46ZM369.42,475.8c-8-6.51-37.25-21.33-37.25-21.33l3.64-3.48-22.87-16.2s-8.48,9.84-12.26,17.4-3.33,16.34,2.57,18.92,57.69,19.37,57.69,19.37,2.12,12.4,3.33,17.1.3,11,.15,12.86,1.51,2,2.27.15c0,0,1.21,1.21,2.58-1.06a2.88,2.88,0,0,0,3.63-1,3.81,3.81,0,0,0,2.72-2.12A50.65,50.65,0,0,0,379.41,502C379.87,496.68,377.45,482.3,369.42,475.8ZM208.17,360.66c-3.33-6.81-15.6-16.19-31.19-10s-22.11,22.54-16.66,32.52,16.05,20.43,16.05,20.43L175,415.13a23.61,23.61,0,0,0,15.75,7.41l3.33,8.32,5-9.08-2-11.65s3.48.76,9.84-.45,11.81-11.5,9.39-22.24S211.5,367.46,208.17,360.66Zm76,64.3c.3,1.82-7.11,10.44-8.32,12.26s-1.51,4.08-2.12,8-5.3,25.72-5.3,25.72l-27,.15s16.81-37.06,18.17-39.79,2.27-15.43,4.09-18.16,7.12-4.53,9.24-5.44,1.82,1.36,1.82,1.36,3.63,1.51,6.05,2.27,2.43,3.63,2.43,3.63S283.88,423.15,284.17,425Z" transform="translate(-140.8 -322.27)"/><path class="cls-4" d="M367.5,413A1.53,1.53,0,1,0,366,411.5,1.53,1.53,0,0,0,367.5,413Zm-13.37-25.29,1.65,5.18c3.09-2.27,8.67-6.59,8.26-8C363.48,383,358.77,386.58,354.13,387.74ZM186.3,408.47c.45,1.57,6.87,6.75,11.95,8.39l-1.13-6.73C191.29,408.47,185.75,406.54,186.3,408.47Zm227.63,33.68-9.31.52-2.73-26.48a.42.42,0,0,0-.83.08l2.78,26.88a.4.4,0,0,0,.4.37h0L414,443a.46.46,0,0,0,.23-.09,108.28,108.28,0,0,1,24,5.49l1.39-7.82-25.33,1.74A.38.38,0,0,0,413.93,442.15Zm-65.53,8.41,13.11-6.28-3.29-10.6S353.73,444.21,348.4,450.56Zm95.27-40.83c-13.21-1.38-28.24.53-28.38.55a.42.42,0,0,0-.36.47.41.41,0,0,0,.41.36h.05c.15,0,15.08-1.92,28.19-.56a.42.42,0,0,0,.45-.36A.41.41,0,0,0,443.67,409.73Zm2.36-11c-9.35-4.95-23.76-10.22-23.9-10.28a.4.4,0,0,0-.52.25.41.41,0,0,0,.24.53c.15.05,14.5,5.31,23.8,10.23a.45.45,0,0,0,.19.05.41.41,0,0,0,.36-.21A.41.41,0,0,0,446,398.69Zm-83.35-35.44a.38.38,0,0,0,.22.07.42.42,0,0,0,.35-.2,4.93,4.93,0,0,0,.81-4.47c-.88-2.24-3.7-3-3.82-3.07a.42.42,0,0,0-.51.29.43.43,0,0,0,.29.51s2.55.72,3.27,2.57a4.17,4.17,0,0,1-.74,3.74A.41.41,0,0,0,362.68,363.25Zm46.4,95.47a.41.41,0,0,0-.58,0,.42.42,0,0,0,0,.59l5.42,5.59a.39.39,0,0,0,.3.13.43.43,0,0,0,.28-.11.42.42,0,0,0,0-.59Zm-125,.53c-5.68-3.24-10.36-9.52-10.41-9.59a.42.42,0,0,0-.67.49c.2.26,4.84,6.48,10.67,9.81a.39.39,0,0,0,.21.06.4.4,0,0,0,.35-.21A.4.4,0,0,0,284.08,459.25Zm-33.79-43.47a.4.4,0,0,0-.58-.06.41.41,0,0,0-.06.58c.07.09,7.06,8.89,9.61,15.17a.41.41,0,0,0,.39.25l.15,0a.42.42,0,0,0,.23-.54C257.43,424.77,250.37,415.87,250.29,415.78Zm-27.57,32.44a.42.42,0,0,0-.23.54c0,.11,4.65,11.61,4.53,22.34a.41.41,0,0,0,.41.41h0a.42.42,0,0,0,.41-.41c.12-10.9-4.54-22.54-4.59-22.66A.43.43,0,0,0,222.72,448.22Zm230.41-84.48a29.74,29.74,0,0,0-2.65-5.53.41.41,0,1,0-.7.44,29.17,29.17,0,0,1,2.57,5.35.4.4,0,0,0,.39.28.3.3,0,0,0,.13,0A.41.41,0,0,0,453.13,363.74Zm-12.48-3.9a.41.41,0,0,0-.58,0,.42.42,0,0,0,0,.59c.09.08,8,8.18,10.36,14.15a.43.43,0,0,0,.53.24.41.41,0,0,0,.23-.54C448.8,368.14,441,360.17,440.65,359.84Zm-14.72,6.74a.41.41,0,0,0-.44.7,106.07,106.07,0,0,1,22.72,20.45.41.41,0,1,0,.64-.52A107.68,107.68,0,0,0,425.93,366.58ZM332.37,454.1,321,447.89a.41.41,0,1,0-.39.72L332,454.83a.49.49,0,0,0,.2.05.41.41,0,0,0,.2-.78Zm45,48.6a.41.41,0,0,0-.45.37c0,.09-.83,8.81-4.37,15.19a.43.43,0,0,0,.16.56.39.39,0,0,0,.2,0,.39.39,0,0,0,.36-.21c3.63-6.54,4.46-15.43,4.47-15.52A.4.4,0,0,0,377.36,502.7Zm-3.36.83a.42.42,0,0,0-.42.41c0,.11-.07,10.29-4.61,15.31a.4.4,0,0,0,0,.58.43.43,0,0,0,.27.11.4.4,0,0,0,.31-.13c4.76-5.26,4.83-15.43,4.83-15.86A.41.41,0,0,0,374,503.53Zm-4,1a.41.41,0,1,0-.82,0c0,.1.33,10-2.82,15.88a.42.42,0,0,0,.18.56.41.41,0,0,0,.19,0,.41.41,0,0,0,.36-.22C370.31,514.67,370,504.89,370,504.48Zm-90.32-79.72a.39.39,0,0,0,.39-.42.42.42,0,0,0-.42-.4c-2.13.09-7.92.23-9.11-.13-.29-.08-.56-.51-.8-1.1,1.33-.4,7.85-2.3,12.62-2a.44.44,0,0,0,.44-.39.41.41,0,0,0-.39-.43c-5-.28-11.65,1.67-12.95,2.07a17.25,17.25,0,0,1-.5-2.06h0a22.52,22.52,0,0,1,12.32-3,.41.41,0,1,0,.05-.82A23,23,0,0,0,268.78,419c0-.26-.07-.51-.09-.74a.49.49,0,0,0-.06-.17l.2-1.73a22.64,22.64,0,0,1,12.29-2.95.41.41,0,0,0,.44-.38.42.42,0,0,0-.38-.44A23.16,23.16,0,0,0,269,415.35v-.16c.59-.5,3.06-2.6,4.12-3.53a11.72,11.72,0,0,0,2.05-2.36.41.41,0,0,0-.7-.44,11.45,11.45,0,0,1-1.89,2.18c-1.21,1-4.23,3.62-4.23,3.62a.42.42,0,0,0-.14.27L267.12,424a.41.41,0,0,0,.36.46h0a.41.41,0,0,0,.41-.37l.37-3.18c.37,1.61,1,3.38,2,3.68a22.54,22.54,0,0,0,4.44.27C277.09,424.87,279.47,424.77,279.65,424.76ZM273,407.71l-1.77-31.18a.62.62,0,0,0-1.23.06l1.34,31.88Zm-68.88-34a.42.42,0,0,0,.06.58.39.39,0,0,0,.58-.06c.13-.15,3.13-3.72,6.69-.84a.42.42,0,0,0,.52-.65C207.74,369.39,204.13,373.71,204.09,373.75Zm-4.47,1.38a.41.41,0,0,0-.13-.56c-5.55-3.48-9.88,1.7-9.93,1.75a.41.41,0,0,0,.06.58.43.43,0,0,0,.26.09.41.41,0,0,0,.32-.15c.16-.19,3.93-4.67,8.85-1.58A.4.4,0,0,0,199.62,375.13Zm16,3.5c-1.06-.41-5.26-1.67-7.87,2.3a.36.36,0,0,1-.21.15c.3.74,1.73,3.88,4.81,3.52S215.6,379.78,215.62,378.63Zm-13,3.55c-.79-.64-5-3.6-11.08.44a5.94,5.94,0,0,0,6.18,4.25,5,5,0,0,0,3.69-1.43A5.15,5.15,0,0,0,202.61,382.18Zm13.84-3.83c0,.27.12,6.58-4,7.08-3.64.44-5.35-3.26-5.68-4.06a2.13,2.13,0,0,0-1.43-.19c.79.9,2.36,2.73,3.15,3.74a1.3,1.3,0,0,1,.26,1.17c-.33,1.16-2.33,2-2.56,2a.35.35,0,0,1-.14,0,.42.42,0,0,1-.39-.27.43.43,0,0,1,.24-.54c.71-.26,1.89-.91,2-1.49a.46.46,0,0,0-.11-.44c-.86-1.09-2.69-3.21-3.34-4a5.4,5.4,0,0,0-1.07.71A5.85,5.85,0,0,1,202,386a5.78,5.78,0,0,1-4.28,1.71h-.26a6.8,6.8,0,0,1-6.75-4.9l-16.5-3.68c-.42,0-6.92-.38-6.49,6.06.46,6.65,6.06,8.92,9.39,8.16s10,17.71-5.3,23.3-18.32-8.47-18.32-8.47-10-.91-11.51-12.11,7.57-13.92,8.93-20.58,5.15-25.87,18.17-32.22,39.63-.15,41.3,22.7a52,52,0,0,1-24.4-7.21s-.79,14.28-10.61,19.79L191,382c6.23-4.21,10.85-1.42,12-.56a6.17,6.17,0,0,1,1.26-.79s0,0,0-.05a.42.42,0,0,1,.32-.09,3,3,0,0,1,2.4.06.36.36,0,0,1,.05-.09,7,7,0,0,1,1.61-1.78,1,1,0,1,1,1-1,.94.94,0,0,1-.07.37,8.21,8.21,0,0,1,6.6-.11A.38.38,0,0,1,216.45,378.35Zm-9.92,12.91s-4.1-.31-6.78-.75c-1.24-.21-1.52.52-1.58.74-.35,1.4,2.05,4.46,6.08,5.8l.13,0a.4.4,0,0,0,.38-.28.41.41,0,0,0-.26-.52c-3.74-1.25-5.73-4-5.53-4.82.05-.2.43-.17.64-.13,2.71.45,6.81.75,6.86.75a.4.4,0,0,0,.44-.38A.41.41,0,0,0,206.53,391.26ZM196,437.37a1,1,0,1,0-1,1A1,1,0,0,0,196,437.37Zm0,28a1,1,0,1,0,1,1A1,1,0,0,0,196,465.35Zm.14-86.65a1,1,0,1,0,1-1A1,1,0,0,0,196.12,378.7Zm190.45,7.76a.41.41,0,0,0-.55.18c-3.54,6.93-7.81,14.24-8.75,14.47-1.19-.36-8.19-5.21-10.78-7.05a.41.41,0,1,0-.48.67c1,.68,9.49,6.7,11,7.16a.25.25,0,0,0,.12,0c.94,0,3.38-2.71,9.6-14.9A.42.42,0,0,0,386.57,386.46Zm-49.09-13.24a6.89,6.89,0,0,1-3.39,1.4.41.41,0,0,0-.36.46.42.42,0,0,0,.41.36h.05a7.61,7.61,0,0,0,3.88-1.63.41.41,0,0,0,0-.58A.42.42,0,0,0,337.48,373.22Zm-3.73-20.61a.4.4,0,0,0-.09.57.41.41,0,0,0,.57.1,4.93,4.93,0,0,1,6.15.73.41.41,0,0,0,.55-.62A5.84,5.84,0,0,0,333.75,352.61Zm3,7.67a1,1,0,1,0-1,1A1,1,0,0,0,336.72,360.28Zm10.59-17.63a14.21,14.21,0,0,1-7.26-2.57s1.21,2.72-.3,1.82-10.3-6.66-8-9.69,20.29-10.89,31.8-9.83,13.47,10,13.47,10c10.15,10,6.67,18.61,4.7,26.17S372.15,377,372.15,377l-9.69-9.08s6.05-7,3.48-11.35-7.72-3.18-7.72-3.18L356,361.55C347.16,355.36,347.31,342.65,347.31,342.65Z" transform="translate(-140.8 -322.27)"/></g></svg>